<mxfile host="app.diagrams.net" modified="2023-10-15T06:04:08.201Z" agent="Mozilla/5.0 (Windows NT 10.0; Win64; x64) AppleWebKit/537.36 (KHTML, like Gecko) Chrome/117.0.0.0 Safari/537.36" version="22.0.4" etag="dT15vZiWrgW01KxsepEL" type="github">
  <diagram name="第 1 页" id="psi3g-Zw4h5B8I8YSsJ_">
    <mxGraphModel>
      <root>
        <mxCell id="0" />
        <mxCell id="1" parent="0" />
      </root>
    </mxGraphModel>
  </diagram>
</mxfile>
